<?xml version="1.0" standalone="no"?><!DOCTYPE svg PUBLIC "-//W3C//DTD SVG 1.1//EN" "http://www.w3.org/Graphics/SVG/1.1/DTD/svg11.dtd"><svg class="icon" width="200px" height="200.00px" viewBox="0 0 1024 1024" version="1.1" xmlns="http://www.w3.org/2000/svg"><path d="M587.776 512l364.032-363.008c9.728-9.728 15.36-23.552 15.36-37.888 0-14.336-5.632-27.648-15.36-37.888-10.24-10.24-23.552-15.36-37.888-15.36-14.336 0-27.648 5.632-37.888 15.36l-364.032 363.52-363.008-364.032c-9.728-9.728-23.552-15.36-37.888-15.36-14.336 0-27.648 5.632-37.888 15.36-10.24 10.24-15.36 23.552-15.36 37.888s5.632 27.648 15.36 37.888l363.008 364.032-364.032 364.032c-10.24 10.24-15.36 23.552-15.36 37.888 0 14.336 5.632 27.648 15.36 37.888 10.24 10.24 23.552 15.36 37.888 15.36 14.336 0 27.648-5.632 37.888-15.36l364.032-364.032 363.008 363.008c20.992 20.992 54.784 20.992 75.264 0 20.992-20.992 20.992-54.784 0-75.264L587.776 512z" /></svg>