<?xml version="1.0" standalone="no"?><!DOCTYPE svg PUBLIC "-//W3C//DTD SVG 1.1//EN" "http://www.w3.org/Graphics/SVG/1.1/DTD/svg11.dtd"><svg class="icon" width="200px" height="197.49px" viewBox="0 0 1037 1024" version="1.1" xmlns="http://www.w3.org/2000/svg"><path d="M212.783838 1023.98889C95.348313 1023.855567 0.144433 928.629466 0 811.216162V412.257576c0.133323-117.457745 95.348313-212.650515 212.783838-212.783838h398.958586c117.457745 0.133323 212.639405 95.326093 212.772728 212.783838v398.958586c-0.133323 117.413304-95.314983 212.639405-212.772728 212.772728z m-119.657578-611.731314v398.958586a119.679799 119.679799 0 0 0 119.657578 119.635358h398.958586a119.679799 119.679799 0 0 0 119.679799-119.635358V412.257576a119.679799 119.679799 0 0 0-119.679799-119.690909H212.783838a119.690909 119.690909 0 0 0-119.657578 119.690909z m757.986872 410.579925v-94.437271a119.690909 119.690909 0 0 0 93.092929-116.657806v-398.969696A119.813122 119.813122 0 0 0 824.515152 93.13737H425.556566a119.890894 119.890894 0 0 0-112.858095 79.782829H216.539108A213.183808 213.183808 0 0 1 425.556566 0h398.958586c117.435525 0.133323 212.650515 95.359424 212.783838 212.772728V611.731314a213.061595 213.061595 0 0 1-186.185858 211.106187z" /></svg>