<?xml version="1.0" encoding="utf-8"?>
<!-- Generator: Adobe Illustrator 26.5.0, SVG Export Plug-In . SVG Version: 6.00 Build 0)  -->
<svg version="1.1" id="图层_1" xmlns="http://www.w3.org/2000/svg" xmlns:xlink="http://www.w3.org/1999/xlink" x="0px" y="0px"
	 viewBox="0 0 200 200" style="enable-background:new 0 0 200 200;" xml:space="preserve">
<path class="st0" d="M200,173.7V26.3C200,11.8,188.2,0,173.7,0H26.3C11.8,0,0,11.8,0,26.3v147.4C0,188.2,11.8,200,26.3,200h147.4
	C188.2,200,200,188.2,200,173.7z M180.4,34v133.3c0,7.9-6.4,14.3-14.3,14.3H32.4c-7.9,0-14.3-6.4-14.3-14.3V34
	c0-7.9,6.4-14.3,14.3-14.3c0,0,133.7,0,133.7,0C174,19.7,180.4,26.1,180.4,34z"/>
</svg>
